<?xml version="1.0" encoding="UTF-8" standalone="no"?>
<!DOCTYPE svg PUBLIC "-//W3C//DTD SVG 1.1//EN" "http://www.w3.org/Graphics/SVG/1.1/DTD/svg11.dtd">
<!-- Generiert durch Microsoft Visio, SVG Export virtual_atomic_sensor.svg Zeichenblatt-1 -->
<svg xmlns="http://www.w3.org/2000/svg" xmlns:xlink="http://www.w3.org/1999/xlink" xmlns:ev="http://www.w3.org/2001/xml-events"
		xmlns:v="http://schemas.microsoft.com/visio/2003/SVGExtensions/" width="1.50648in" height="1.52059in"
		viewBox="0 0 108.467 109.482" xml:space="preserve" color-interpolation-filters="sRGB" class="st4">
	<v:documentProperties v:langID="1031" v:metric="true" v:viewMarkup="false"/>

	<style type="text/css">
	<![CDATA[
		.st1 {fill:#ffffff;stroke:#3f7230;stroke-linecap:round;stroke-linejoin:round;stroke-width:0.75}
		.st2 {stroke:#3f7230;stroke-linecap:round;stroke-linejoin:round;stroke-width:0.75}
		.st3 {stroke:#3f7230;stroke-linecap:round;stroke-linejoin:round;stroke-width:1}
		.st4 {fill:none;fill-rule:evenodd;font-size:12px;overflow:visible;stroke-linecap:square;stroke-miterlimit:3}
	]]>
	</style>

	<g v:mID="0" v:index="1" v:groupContext="foregroundPage">
		<title>Zeichenblatt-1</title>
		<v:pageProperties v:drawingScale="0.0393701" v:pageScale="0.0393701" v:drawingUnits="24" v:shadowOffsetX="8.50394"
				v:shadowOffsetY="-8.50394"/>
		<g id="group13-1" transform="translate(0.375004,-0.375)" v:mID="13" v:groupContext="group">
			<title>Tabelle.13</title>
			<g id="group14-2" v:mID="14" v:groupContext="group">
				<title>Tabelle.14</title>
				<g id="shape15-3" v:mID="15" v:groupContext="shape" transform="translate(3.39378E-08,0)">
					<title>Tabelle.15</title>
					<path d="M21.64 0.75 L86.54 0.75 L107.72 27.35 L107.72 82.3 L86.54 109.48 L21.64 109.48 L0 82.3 L0 27.2 L21.64
								 0.75 Z" class="st1"/>
				</g>
				<g id="shape16-5" v:mID="16" v:groupContext="shape" transform="translate(107.566,137.6) rotate(-179.921)">
					<title>Tabelle.16</title>
					<path d="M0 109.48 L107.72 109.48" class="st2"/>
				</g>
			</g>
			<g id="shape19-8" v:mID="19" v:groupContext="shape" transform="translate(19.788,-82.9134)">
				<title>Datenbank.189</title>
				<v:userDefs>
					<v:ud v:nameU="msvShapeCategories" v:prompt="" v:val="VT4(Icon)"/>
					<v:ud v:nameU="visVersion" v:prompt="" v:val="VT0(15):26"/>
				</v:userDefs>
				<path d="M-0.01 92.28 A7.15115 3.96411 179.35 1 1 14.29 92.11 A7.15115 3.96411 179.35 1 1 -0.01 92.28" class="st3"/>
				<path d="M14.28 92.33 L14.28 105.03 A6.80278 4.13319 0 0 1 7.13 109.37 A6.78131 4.12014 0 0 1 0 105.03 L0 92.33"
						class="st3"/>
			</g>
		</g>
	</g>
</svg>
